<?xml version="1.0" ?><svg enable-background="new 0 0 512 512" id="Layer_1" version="1.1" viewBox="0 0 512 512" xml:space="preserve" xmlns="http://www.w3.org/2000/svg" xmlns:xlink="http://www.w3.org/1999/xlink"><g><g><linearGradient gradientUnits="userSpaceOnUse" id="SVGID_1_" x1="0.0000083" x2="512" y1="256" y2="256"><stop offset="0" style="stop-color:#FFCA05"/><stop offset="1" style="stop-color:#FAAC18"/></linearGradient><circle cx="256" cy="256" fill="url(#SVGID_1_)" r="256"/><linearGradient gradientUnits="userSpaceOnUse" id="SVGID_2_" x1="42.6666756" x2="469.333313" y1="256.0005188" y2="256.0005188"><stop offset="0" style="stop-color:#FAAC18"/><stop offset="1" style="stop-color:#FFCA05"/></linearGradient><path d="M256,469.3338623c-117.6309204,0-213.3333282-95.7018738-213.3333282-213.3333435    S138.3690796,42.6671982,256,42.6671982c117.636261,0,213.333313,95.7018661,213.333313,213.333313    S373.636261,469.3338623,256,469.3338623z" fill="url(#SVGID_2_)"/></g><g><rect height="38.3600006" opacity="0.3" width="152.4997253" x="187.7503967" y="152.2191925"/><path d="M144.0000153,200.5791931v139.200531h39.1151886v-67.1007996h161.7680054v67.1007996H384v-139.200531    H144.0000153z M176.9167938,232.6789398h-9.9999847v-10h9.9999847V232.6789398z M198.3743896,232.6789398h-10v-10h10V232.6789398z     M219.834137,232.6789398h-10v-10h10V232.6789398z" opacity="0.3"/><path d="M193.0949249,375.7807922H334.894928V282.680542H193.0949249V375.7807922z M226.4991913,312.9914551    h75.0000153v10h-75.0000153V312.9914551z M226.4991913,335.4912109h75.0000153v10h-75.0000153V335.4912109z" opacity="0.3"/></g><g><rect fill="#FFFFFF" height="38.3600006" width="152.4997253" x="179.7503967" y="144.2191925"/><path d="M136.0000153,192.5791931v139.200531h39.1151886v-67.1007996h161.7680054v67.1007996H376v-139.200531    H136.0000153z M168.9168091,224.6789398h-10v-10h10V224.6789398z M190.3743896,224.6789398h-10v-10h10V224.6789398z     M211.834137,224.6789398h-10v-10h10V224.6789398z" fill="#FFFFFF"/><path d="M185.0949249,367.7807922H326.894928V274.680542H185.0949249V367.7807922z M218.4991913,304.9914551    h75.0000153v10h-75.0000153V304.9914551z M218.4991913,327.4912109h75.0000153v10h-75.0000153V327.4912109z" fill="#FFFFFF"/></g></g></svg>